<svg xmlns="http://www.w3.org/2000/svg" xmlns:xlink="http://www.w3.org/1999/xlink" width="800" zoomAndPan="magnify" viewBox="0 0 600 225" height="300" preserveAspectRatio="xMidYMid meet" version="1.0"><defs><g/></defs><g fill="#000000" fill-opacity="1"><g transform="translate(317.317125, 130.039488)"><g/></g></g><g fill="#000000" fill-opacity="1"><g transform="translate(350.32281, 130.039488)"><g><path d="M 58.46875 -71.6875 C 60.863281 -70.414062 62.378906 -68.546875 63.015625 -66.078125 C 61.609375 -58.179688 60.335938 -50.335938 59.203125 -42.546875 C 58.078125 -34.765625 56.984375 -28.25 55.921875 -23 C 54.867188 -17.75 54.148438 -13.816406 53.765625 -11.203125 C 53.378906 -8.597656 52.9375 -5.992188 52.4375 -3.390625 L 51.8125 -1.15625 C 51.664062 -0.382812 51.519531 0.332031 51.375 1 C 51.238281 1.675781 51.101562 2.398438 50.96875 3.171875 C 48.988281 5.429688 46.304688 6.5625 42.921875 6.5625 C 39.328125 6.5625 36.472656 5.644531 34.359375 3.8125 C 33.085938 2.820312 32.878906 0.738281 33.734375 -2.4375 C 34.085938 -3.695312 34.316406 -5.332031 34.421875 -7.34375 C 34.523438 -9.351562 34.644531 -11.03125 34.78125 -12.375 L 34.78125 -12.578125 C 32.664062 -11.804688 30.765625 -10.800781 29.078125 -9.5625 C 27.390625 -8.332031 26.332031 -7.554688 25.90625 -7.234375 C 25.476562 -6.921875 24.910156 -6.675781 24.203125 -6.5 C 23.503906 -6.320312 22.875 -6.195312 22.3125 -6.125 C 20.96875 -6.0625 20.050781 -5.851562 19.5625 -5.5 C 15.46875 1.832031 11.800781 5.921875 8.5625 6.765625 C 6.519531 7.398438 4.472656 7.554688 2.421875 7.234375 C 0.378906 6.921875 -1.238281 5.707031 -2.4375 3.59375 C -4.6875 1.476562 -4.117188 -4.300781 -0.734375 -13.75 C 1.097656 -18.75 3.722656 -24.753906 7.140625 -31.765625 C 10.554688 -38.785156 13.847656 -44.90625 17.015625 -50.125 C 23.859375 -61.332031 31.367188 -70.773438 39.546875 -78.453125 C 40.878906 -79.015625 42.320312 -79.664062 43.875 -80.40625 C 45.425781 -81.144531 46.957031 -81.550781 48.46875 -81.625 C 49.988281 -81.695312 51.554688 -81.519531 53.171875 -81.09375 C 54.796875 -80.675781 56.175781 -80.039062 57.3125 -79.1875 C 59.914062 -77.21875 60.300781 -74.71875 58.46875 -71.6875 Z M 35.84375 -43.875 C 34.363281 -39.644531 32.882812 -35.75 31.40625 -32.1875 C 29.925781 -28.632812 28.65625 -25.519531 27.59375 -22.84375 L 35.953125 -23.15625 C 36.515625 -27.664062 37.144531 -32.140625 37.84375 -36.578125 C 38.550781 -41.023438 39.222656 -45.46875 39.859375 -49.90625 Z M 32.984375 -22.734375 C 33.972656 -22.734375 34.960938 -22.800781 35.953125 -22.9375 L 35.953125 -23.046875 C 35.035156 -22.972656 34.1875 -22.898438 33.40625 -22.828125 C 32.632812 -22.765625 32.492188 -22.734375 32.984375 -22.734375 Z M 32.984375 -22.734375 "/></g></g></g><g fill="#000000" fill-opacity="1"><g transform="translate(409.958622, 130.039488)"><g><path d="M 18.5 0.3125 C 17.863281 3.132812 15.679688 4.863281 11.953125 5.5 C 8.492188 6.132812 5.210938 5.742188 2.109375 4.328125 C -1.335938 2.847656 -2.851562 0.769531 -2.4375 -1.90625 C -2.851562 -5.988281 -0.703125 -14.867188 4.015625 -28.546875 C 11.066406 -49.054688 18.117188 -63.71875 25.171875 -72.53125 C 26.992188 -74.789062 28.554688 -76.253906 29.859375 -76.921875 C 31.171875 -77.585938 32.671875 -78.203125 34.359375 -78.765625 C 36.054688 -79.335938 37.820312 -79.867188 39.65625 -80.359375 C 43.320312 -81.347656 46.789062 -82.035156 50.0625 -82.421875 C 53.34375 -82.804688 56.285156 -82.414062 58.890625 -81.25 C 61.503906 -80.09375 63.53125 -78.382812 64.96875 -76.125 C 66.414062 -73.875 67.316406 -71.210938 67.671875 -68.140625 C 68.023438 -65.078125 67.914062 -61.867188 67.34375 -58.515625 C 66.78125 -55.171875 65.757812 -51.789062 64.28125 -48.375 C 62.800781 -44.957031 60.9375 -41.765625 58.6875 -38.796875 C 53.75 -32.316406 47.96875 -28.125 41.34375 -26.21875 L 42.40625 -24.421875 C 43.320312 -23.015625 44.429688 -21.460938 45.734375 -19.765625 C 47.035156 -18.078125 48.335938 -16.351562 49.640625 -14.59375 C 50.941406 -12.832031 52.117188 -11.066406 53.171875 -9.296875 C 54.234375 -7.535156 55.015625 -5.878906 55.515625 -4.328125 C 56.640625 -0.878906 55.753906 1.617188 52.859375 3.171875 C 50.535156 4.578125 48.707031 4.929688 47.375 4.234375 C 46.800781 3.878906 46.234375 3.4375 45.671875 2.90625 C 45.109375 2.375 44.332031 1.9375 43.34375 1.59375 C 39.1875 2.789062 36.015625 1.726562 33.828125 -1.59375 C 32.492188 -3.707031 31.472656 -5.644531 30.765625 -7.40625 C 30.066406 -9.164062 29.46875 -10.644531 28.96875 -11.84375 C 27.695312 -14.445312 26.253906 -16.703125 24.640625 -18.609375 C 23.859375 -16.703125 22.976562 -14.269531 22 -11.3125 C 20.789062 -7.570312 19.445312 -3.695312 17.96875 0.3125 Z M 39.859375 -61.21875 C 38.523438 -58.1875 37.609375 -56.070312 37.109375 -54.875 C 36.117188 -52.476562 35.023438 -49.835938 33.828125 -46.953125 C 33.617188 -45.398438 33.445312 -44.304688 33.3125 -43.671875 L 34.78125 -45.15625 L 36.578125 -46 C 37.847656 -46.695312 39.007812 -47.328125 40.0625 -47.890625 C 41.125 -48.460938 42.078125 -49.171875 42.921875 -50.015625 C 44.546875 -51.628906 45.957031 -54.269531 47.15625 -57.9375 C 47.15625 -58.644531 47.273438 -59.347656 47.515625 -60.046875 C 47.765625 -60.753906 47.925781 -61.460938 48 -62.171875 C 48.28125 -63.722656 47.644531 -64.816406 46.09375 -65.453125 C 44.6875 -65.585938 42.925781 -64.421875 40.8125 -61.953125 C 40.382812 -61.460938 40.066406 -61.21875 39.859375 -61.21875 Z M 39.859375 -61.21875 "/></g></g></g><g fill="#000000" fill-opacity="1"><g transform="translate(471.497712, 130.039488)"><g><path d="M 58.46875 -71.6875 C 60.863281 -70.414062 62.378906 -68.546875 63.015625 -66.078125 C 61.609375 -58.179688 60.335938 -50.335938 59.203125 -42.546875 C 58.078125 -34.765625 56.984375 -28.25 55.921875 -23 C 54.867188 -17.75 54.148438 -13.816406 53.765625 -11.203125 C 53.378906 -8.597656 52.9375 -5.992188 52.4375 -3.390625 L 51.8125 -1.15625 C 51.664062 -0.382812 51.519531 0.332031 51.375 1 C 51.238281 1.675781 51.101562 2.398438 50.96875 3.171875 C 48.988281 5.429688 46.304688 6.5625 42.921875 6.5625 C 39.328125 6.5625 36.472656 5.644531 34.359375 3.8125 C 33.085938 2.820312 32.878906 0.738281 33.734375 -2.4375 C 34.085938 -3.695312 34.316406 -5.332031 34.421875 -7.34375 C 34.523438 -9.351562 34.644531 -11.03125 34.78125 -12.375 L 34.78125 -12.578125 C 32.664062 -11.804688 30.765625 -10.800781 29.078125 -9.5625 C 27.390625 -8.332031 26.332031 -7.554688 25.90625 -7.234375 C 25.476562 -6.921875 24.910156 -6.675781 24.203125 -6.5 C 23.503906 -6.320312 22.875 -6.195312 22.3125 -6.125 C 20.96875 -6.0625 20.050781 -5.851562 19.5625 -5.5 C 15.46875 1.832031 11.800781 5.921875 8.5625 6.765625 C 6.519531 7.398438 4.472656 7.554688 2.421875 7.234375 C 0.378906 6.921875 -1.238281 5.707031 -2.4375 3.59375 C -4.6875 1.476562 -4.117188 -4.300781 -0.734375 -13.75 C 1.097656 -18.75 3.722656 -24.753906 7.140625 -31.765625 C 10.554688 -38.785156 13.847656 -44.90625 17.015625 -50.125 C 23.859375 -61.332031 31.367188 -70.773438 39.546875 -78.453125 C 40.878906 -79.015625 42.320312 -79.664062 43.875 -80.40625 C 45.425781 -81.144531 46.957031 -81.550781 48.46875 -81.625 C 49.988281 -81.695312 51.554688 -81.519531 53.171875 -81.09375 C 54.796875 -80.675781 56.175781 -80.039062 57.3125 -79.1875 C 59.914062 -77.21875 60.300781 -74.71875 58.46875 -71.6875 Z M 35.84375 -43.875 C 34.363281 -39.644531 32.882812 -35.75 31.40625 -32.1875 C 29.925781 -28.632812 28.65625 -25.519531 27.59375 -22.84375 L 35.953125 -23.15625 C 36.515625 -27.664062 37.144531 -32.140625 37.84375 -36.578125 C 38.550781 -41.023438 39.222656 -45.46875 39.859375 -49.90625 Z M 32.984375 -22.734375 C 33.972656 -22.734375 34.960938 -22.800781 35.953125 -22.9375 L 35.953125 -23.046875 C 35.035156 -22.972656 34.1875 -22.898438 33.40625 -22.828125 C 32.632812 -22.765625 32.492188 -22.734375 32.984375 -22.734375 Z M 32.984375 -22.734375 "/></g></g></g><g fill="#000000" fill-opacity="1"><g transform="translate(531.133524, 130.039488)"><g><path d="M 55.828125 -79.71875 L 56.25 -79.625 C 58.007812 -78.5625 59.539062 -77.378906 60.84375 -76.078125 C 62.15625 -74.773438 63.351562 -73.398438 64.4375 -71.953125 C 65.53125 -70.503906 66.394531 -68.9375 67.03125 -67.25 C 69.707031 -60.757812 67.382812 -53.5 60.0625 -45.46875 C 56.957031 -42.082031 53.46875 -39.191406 49.59375 -36.796875 C 50.570312 -36.085938 51.503906 -35.570312 52.390625 -35.25 C 53.273438 -34.9375 54.523438 -34.335938 56.140625 -33.453125 C 57.765625 -32.578125 58.820312 -30.921875 59.3125 -28.484375 C 59.8125 -26.054688 59.691406 -23.328125 58.953125 -20.296875 C 58.210938 -17.265625 56.867188 -14.144531 54.921875 -10.9375 C 52.984375 -7.726562 50.46875 -4.859375 47.375 -2.328125 C 40.320312 3.523438 32.144531 5.992188 22.84375 5.078125 C 21.5 5.078125 20.648438 4.96875 20.296875 4.75 C 19.941406 4.539062 19.660156 4.363281 19.453125 4.21875 C 19.242188 4.082031 18.785156 3.976562 18.078125 3.90625 C 16.316406 5.320312 14.304688 6.203125 12.046875 6.546875 C 9.796875 6.898438 7.664062 6.722656 5.65625 6.015625 C 3.644531 5.316406 1.953125 4.117188 0.578125 2.421875 C -0.796875 0.734375 -1.484375 -1.484375 -1.484375 -4.234375 C -1.265625 -6.066406 -0.910156 -7.507812 -0.421875 -8.5625 C -0.628906 -9.195312 -0.734375 -9.972656 -0.734375 -10.890625 C 1.660156 -23.648438 3.914062 -33.410156 6.03125 -40.171875 C 10.332031 -53.640625 14.984375 -63.789062 19.984375 -70.625 C 24.066406 -76.40625 29.738281 -80.144531 37 -81.84375 C 43.976562 -83.457031 50.253906 -82.75 55.828125 -79.71875 Z M 22.9375 -5.921875 C 23.789062 -6.128906 24.515625 -6.179688 25.109375 -6.078125 C 25.710938 -5.972656 26.4375 -5.988281 27.28125 -6.125 C 29.320312 -6.34375 32.070312 -7.613281 35.53125 -9.9375 C 37.707031 -12.125 38.867188 -14.273438 39.015625 -16.390625 C 39.160156 -18.503906 38.84375 -19.859375 38.0625 -20.453125 C 37.289062 -21.054688 36.25 -21.359375 34.9375 -21.359375 C 33.632812 -21.359375 32.191406 -21.160156 30.609375 -20.765625 C 29.023438 -20.378906 27.492188 -20.15625 26.015625 -20.09375 L 26.015625 -19.875 C 25.660156 -18.46875 25.304688 -17.234375 24.953125 -16.171875 C 24.597656 -15.117188 24.28125 -14.097656 24 -13.109375 C 23.363281 -10.785156 22.867188 -8.390625 22.515625 -5.921875 Z M 42.609375 -60.90625 C 40.492188 -61.1875 38.203125 -59.53125 35.734375 -55.9375 C 34.179688 -53.675781 32.984375 -50.253906 32.140625 -45.671875 C 33.617188 -46.304688 35.082031 -46.851562 36.53125 -47.3125 C 37.976562 -47.769531 39.335938 -48.28125 40.609375 -48.84375 C 43.703125 -50.1875 45.921875 -51.8125 47.265625 -53.71875 C 48.816406 -55.550781 49.3125 -57.097656 48.75 -58.359375 C 47.894531 -59.492188 46.519531 -60.519531 44.625 -61.4375 C 44.0625 -60.9375 43.390625 -60.757812 42.609375 -60.90625 Z M 41.03125 -61.328125 L 41.34375 -61.328125 Z M 41.03125 -61.328125 "/></g></g></g><g fill="#000000" fill-opacity="1"><g transform="translate(-0.000000000000021316, 136.570979)"><g><path d="M 47.46875 -52.65625 C 47.46875 -54.769531 46.726562 -55.828125 45.25 -55.828125 C 44.6875 -55.828125 44.015625 -55.6875 43.234375 -55.40625 C 42.460938 -55.125 41.726562 -54.878906 41.03125 -54.671875 C 38.414062 -53.253906 36.382812 -51.71875 34.9375 -50.0625 C 33.5 -48.40625 32.039062 -46.554688 30.5625 -44.515625 C 29.082031 -42.472656 27.8125 -40.285156 26.75 -37.953125 C 25.695312 -35.628906 24.882812 -33.445312 24.3125 -31.40625 C 22.269531 -23.863281 23.046875 -18.785156 26.640625 -16.171875 C 28.117188 -15.117188 29.6875 -14.609375 31.34375 -14.640625 C 33 -14.679688 34.335938 -15.015625 35.359375 -15.640625 C 36.390625 -16.273438 37.394531 -16.875 38.375 -17.4375 C 39.363281 -18.007812 40.507812 -18.414062 41.8125 -18.65625 C 43.125 -18.90625 44.75 -18.726562 46.6875 -18.125 C 48.625 -17.53125 49.660156 -16.738281 49.796875 -15.75 C 49.941406 -14.769531 49.941406 -13.75 49.796875 -12.6875 C 49.660156 -11.632812 49.644531 -10.679688 49.75 -9.828125 C 49.851562 -8.984375 50.609375 -8.457031 52.015625 -8.25 C 53.359375 -6.550781 52.515625 -4.503906 49.484375 -2.109375 C 48.710938 -1.472656 47.972656 -0.875 47.265625 -0.3125 C 41.203125 3.5625 34.75 5.707031 27.90625 6.125 C 23.613281 6.414062 19.035156 5.644531 14.171875 3.8125 C 6.910156 1.0625 2.820312 -5.109375 1.90625 -14.703125 C 0.707031 -23.578125 1.832031 -32.773438 5.28125 -42.296875 C 8.175781 -50.328125 12.546875 -57.765625 18.390625 -64.609375 C 23.679688 -70.878906 28.898438 -74.96875 34.046875 -76.875 C 40.179688 -80.039062 46.804688 -81.269531 53.921875 -80.5625 C 61.460938 -79.582031 66.398438 -76.378906 68.734375 -70.953125 C 71.054688 -65.523438 70.664062 -59.003906 67.5625 -51.390625 C 66.507812 -48.710938 64.5 -46.597656 61.53125 -45.046875 C 59 -43.628906 56.25 -42.921875 53.28125 -42.921875 C 50.320312 -42.921875 48.421875 -43.851562 47.578125 -45.71875 C 46.734375 -47.59375 46.695312 -49.90625 47.46875 -52.65625 Z M 47.46875 -52.65625 "/></g></g></g><g fill="#000000" fill-opacity="1"><g transform="translate(60.585787, 136.570979)"><g><path d="M 21.46875 -70 C 25.90625 -75.070312 30.835938 -78.242188 36.265625 -79.515625 C 40.003906 -80.429688 43.53125 -80.289062 46.84375 -79.09375 C 49.445312 -81.84375 52.828125 -82.828125 56.984375 -82.046875 C 60.796875 -81.347656 64.039062 -79.195312 66.71875 -75.59375 C 66.863281 -75.101562 67.160156 -74.363281 67.609375 -73.375 C 68.066406 -72.394531 68.507812 -71.304688 68.9375 -70.109375 C 72.039062 -62.910156 72.285156 -53.460938 69.671875 -41.765625 C 66.429688 -27.242188 60.6875 -14.941406 52.4375 -4.859375 C 49.90625 -1.765625 47.050781 0.804688 43.875 2.859375 C 38.800781 6.734375 32.738281 8.457031 25.6875 8.03125 C 21.320312 7.820312 17.660156 6.734375 14.703125 4.765625 C 2.929688 -1.085938 -0.910156 -13.285156 3.171875 -31.828125 C 6.554688 -47.054688 12.65625 -59.78125 21.46875 -70 Z M 22.734375 -13.84375 L 22.625 -13.21875 L 22.84375 -12.046875 C 23.257812 -9.867188 23.960938 -8.195312 24.953125 -7.03125 C 25.941406 -5.863281 26.753906 -5.140625 27.390625 -4.859375 C 28.085938 -5.421875 28.789062 -5.945312 29.5 -6.4375 C 30.207031 -6.9375 30.84375 -7.539062 31.40625 -8.25 C 36.195312 -14.164062 39.929688 -21.914062 42.609375 -31.5 C 45.285156 -41.09375 46.273438 -49.976562 45.578125 -58.15625 C 42.828125 -54.625 39.9375 -50.566406 36.90625 -45.984375 C 33.875 -41.410156 31.476562 -37.503906 29.71875 -34.265625 C 25.695312 -26.710938 23.367188 -19.90625 22.734375 -13.84375 Z M 22.734375 -13.84375 "/></g></g></g><g fill="#000000" fill-opacity="1"><g transform="translate(128.150045, 136.570979)"><g><path d="M 54.234375 -22.625 C 51.421875 -20.507812 48.476562 -18.972656 45.40625 -18.015625 C 42.34375 -17.066406 39.296875 -16.804688 36.265625 -17.234375 C 33.234375 -17.660156 30.625 -18.960938 28.4375 -21.140625 C 26.46875 -14.867188 25.128906 -8.664062 24.421875 -2.53125 C 24.140625 -1.40625 23.644531 -0.382812 22.9375 0.53125 C 21.675781 4.257812 18.894531 6.757812 14.59375 8.03125 C 10.363281 9.226562 6.414062 9.019531 2.75 7.40625 C 1.0625 6.625 -0.34375 5.492188 -1.46875 4.015625 C -2.601562 2.535156 -3.171875 0.738281 -3.171875 -1.375 C 1.691406 -18.21875 6.378906 -32.035156 10.890625 -42.828125 C 11.878906 -45.078125 12.671875 -46.90625 13.265625 -48.3125 C 13.867188 -49.726562 14.414062 -50.925781 14.90625 -51.90625 C 15.40625 -52.894531 15.847656 -53.757812 16.234375 -54.5 C 16.617188 -55.238281 17.09375 -56.066406 17.65625 -56.984375 C 18.925781 -59.097656 20.390625 -61.582031 22.046875 -64.4375 C 23.703125 -67.300781 25.109375 -69.4375 26.265625 -70.84375 C 27.429688 -72.25 28.664062 -73.460938 29.96875 -74.484375 C 31.28125 -75.503906 32.726562 -76.472656 34.3125 -77.390625 C 35.894531 -78.304688 37.882812 -79.503906 40.28125 -80.984375 C 42.675781 -82.472656 45.226562 -83.375 47.9375 -83.6875 C 50.65625 -84.007812 53.25 -83.78125 55.71875 -83 C 60.9375 -81.375 64.78125 -77.742188 67.25 -72.109375 C 69.363281 -66.890625 69.710938 -59.875 68.296875 -51.0625 C 66.117188 -37.601562 61.429688 -28.125 54.234375 -22.625 Z M 32.140625 -32.03125 C 37.921875 -33.300781 41.941406 -37.070312 44.203125 -43.34375 C 46.097656 -48.632812 46.484375 -54.628906 45.359375 -61.328125 C 43.734375 -58.578125 42.269531 -55.722656 40.96875 -52.765625 C 39.664062 -49.804688 38.488281 -47.160156 37.4375 -44.828125 C 35.101562 -39.609375 33.335938 -35.34375 32.140625 -32.03125 Z M 32.140625 -32.03125 "/></g></g></g><g fill="#000000" fill-opacity="1"><g transform="translate(192.225059, 136.570979)"><g><path d="M 21.46875 -70 C 25.90625 -75.070312 30.835938 -78.242188 36.265625 -79.515625 C 40.003906 -80.429688 43.53125 -80.289062 46.84375 -79.09375 C 49.445312 -81.84375 52.828125 -82.828125 56.984375 -82.046875 C 60.796875 -81.347656 64.039062 -79.195312 66.71875 -75.59375 C 66.863281 -75.101562 67.160156 -74.363281 67.609375 -73.375 C 68.066406 -72.394531 68.507812 -71.304688 68.9375 -70.109375 C 72.039062 -62.910156 72.285156 -53.460938 69.671875 -41.765625 C 66.429688 -27.242188 60.6875 -14.941406 52.4375 -4.859375 C 49.90625 -1.765625 47.050781 0.804688 43.875 2.859375 C 38.800781 6.734375 32.738281 8.457031 25.6875 8.03125 C 21.320312 7.820312 17.660156 6.734375 14.703125 4.765625 C 2.929688 -1.085938 -0.910156 -13.285156 3.171875 -31.828125 C 6.554688 -47.054688 12.65625 -59.78125 21.46875 -70 Z M 22.734375 -13.84375 L 22.625 -13.21875 L 22.84375 -12.046875 C 23.257812 -9.867188 23.960938 -8.195312 24.953125 -7.03125 C 25.941406 -5.863281 26.753906 -5.140625 27.390625 -4.859375 C 28.085938 -5.421875 28.789062 -5.945312 29.5 -6.4375 C 30.207031 -6.9375 30.84375 -7.539062 31.40625 -8.25 C 36.195312 -14.164062 39.929688 -21.914062 42.609375 -31.5 C 45.285156 -41.09375 46.273438 -49.976562 45.578125 -58.15625 C 42.828125 -54.625 39.9375 -50.566406 36.90625 -45.984375 C 33.875 -41.410156 31.476562 -37.503906 29.71875 -34.265625 C 25.695312 -26.710938 23.367188 -19.90625 22.734375 -13.84375 Z M 22.734375 -13.84375 "/></g></g></g><g fill="#000000" fill-opacity="1"><g transform="translate(259.789317, 136.570979)"><g><path d="M 7.1875 -41.03125 C 8.59375 -45.75 9.738281 -49.394531 10.625 -51.96875 C 11.507812 -54.539062 12.375 -56.847656 13.21875 -58.890625 C 14.0625 -60.929688 15.03125 -62.90625 16.125 -64.8125 C 17.21875 -66.71875 18.414062 -68.460938 19.71875 -70.046875 C 21.019531 -71.628906 22.410156 -72.878906 23.890625 -73.796875 C 25.367188 -74.710938 26.921875 -75.171875 28.546875 -75.171875 C 30.171875 -75.171875 31.863281 -74.539062 33.625 -73.28125 C 36.445312 -66.226562 38.171875 -61.503906 38.796875 -59.109375 C 39.648438 -55.578125 40.425781 -50.609375 41.125 -44.203125 C 41.757812 -45.816406 42.484375 -47.519531 43.296875 -49.3125 C 44.109375 -51.113281 44.898438 -52.929688 45.671875 -54.765625 C 47.859375 -59.421875 49.234375 -62.945312 49.796875 -65.34375 C 51.347656 -70.28125 54.554688 -73.984375 59.421875 -76.453125 C 63.648438 -78.566406 67.597656 -79.234375 71.265625 -78.453125 C 72.742188 -78.171875 73.78125 -77.570312 74.375 -76.65625 C 74.976562 -75.738281 74.976562 -74.785156 74.375 -73.796875 C 73.78125 -72.816406 73.570312 -71.882812 73.75 -71 C 73.925781 -70.113281 74.082031 -69.070312 74.21875 -67.875 C 74.4375 -64.632812 73.875 -61.765625 72.53125 -59.265625 C 71.195312 -56.765625 69.820312 -53.660156 68.40625 -49.953125 C 67 -46.253906 65.570312 -42.328125 64.125 -38.171875 C 62.675781 -34.015625 61.210938 -29.785156 59.734375 -25.484375 C 58.253906 -21.179688 56.8125 -17.269531 55.40625 -13.75 C 52.300781 -5.644531 49.765625 -1.164062 47.796875 -0.3125 C 45.117188 1.300781 43.144531 2.25 41.875 2.53125 C 40.25 2.8125 37.957031 2.8125 35 2.53125 C 33.164062 2.394531 31.578125 0.0351562 30.234375 -4.546875 C 29.460938 -7.015625 28.757812 -10.429688 28.125 -14.796875 C 27 -22.410156 26.222656 -26.609375 25.796875 -27.390625 C 22.972656 -18.222656 20.976562 -12.441406 19.8125 -10.046875 C 18.65625 -7.648438 17.773438 -6.0625 17.171875 -5.28125 C 16.578125 -4.507812 15.859375 -3.488281 15.015625 -2.21875 C 14.097656 0.320312 11.910156 2.191406 8.453125 3.390625 C 5.492188 4.515625 2.816406 4.6875 0.421875 3.90625 C -2.179688 3.0625 -2.957031 1.441406 -1.90625 -0.953125 C -1.125 -9.410156 1.90625 -22.769531 7.1875 -41.03125 Z M 7.1875 -41.03125 "/></g></g></g><g fill="#000000" fill-opacity="1"><g transform="translate(326.406263, 136.570979)"><g/></g></g><g fill="#000000" fill-opacity="1"><g transform="translate(402.850267, 166.473123)"><g><path d="M 15.453125 0.3125 C 14.453125 0.3125 13.507812 0.0664062 12.625 -0.421875 C 12.15625 2.179688 11.125 4.257812 9.53125 5.8125 C 7.945312 7.363281 6.070312 8.140625 3.90625 8.140625 C 3.425781 8.140625 2.679688 7.828125 1.671875 7.203125 C 0.671875 6.585938 -0.316406 5.851562 -1.296875 5 L -0.6875 3.421875 C 0.675781 3.765625 1.96875 3.9375 3.1875 3.9375 C 5.0625 3.9375 6.65625 3.460938 7.96875 2.515625 C 9.28125 1.566406 10.222656 0.207031 10.796875 -1.5625 C 10.578125 -2.019531 10.363281 -2.414062 10.15625 -2.75 C 9.957031 -3.09375 9.476562 -3.859375 8.71875 -5.046875 C 8 -6.148438 7.46875 -7.09375 7.125 -7.875 C 6.78125 -8.664062 6.609375 -9.367188 6.609375 -9.984375 C 6.609375 -10.734375 6.910156 -11.472656 7.515625 -12.203125 C 8.117188 -12.941406 8.882812 -13.539062 9.8125 -14 C 10.0625 -12.96875 10.539062 -11.425781 11.25 -9.375 C 11.90625 -7.46875 12.34375 -5.976562 12.5625 -4.90625 C 13.394531 -4.445312 14.359375 -4.21875 15.453125 -4.21875 C 15.660156 -4.21875 15.765625 -4.113281 15.765625 -3.90625 L 15.765625 0 C 15.765625 0.207031 15.660156 0.3125 15.453125 0.3125 Z M 15.453125 0.3125 "/></g></g></g><g fill="#000000" fill-opacity="1"><g transform="translate(417.972215, 166.473123)"><g><path d="M 0 0.3125 C -0.207031 0.3125 -0.3125 0.207031 -0.3125 0 L -0.3125 -3.90625 C -0.3125 -4.113281 -0.207031 -4.21875 0 -4.21875 L 4.125 -4.21875 C 4.351562 -4.21875 4.46875 -4.113281 4.46875 -3.90625 L 4.46875 0 C 4.46875 0.207031 4.351562 0.3125 4.125 0.3125 Z M 0 0.3125 "/></g></g></g><g fill="#000000" fill-opacity="1"><g transform="translate(421.784471, 166.473123)"><g><path d="M 0 0.3125 C -0.207031 0.3125 -0.3125 0.207031 -0.3125 0 L -0.3125 -3.90625 C -0.3125 -4.113281 -0.207031 -4.21875 0 -4.21875 L 4.125 -4.21875 C 4.351562 -4.21875 4.46875 -4.113281 4.46875 -3.90625 L 4.46875 0 C 4.46875 0.207031 4.351562 0.3125 4.125 0.3125 Z M 0 0.3125 "/></g></g></g><g fill="#000000" fill-opacity="1"><g transform="translate(425.596726, 166.473123)"><g><path d="M 0 0.3125 C -0.207031 0.3125 -0.3125 0.207031 -0.3125 0 L -0.3125 -3.90625 C -0.3125 -4.113281 -0.207031 -4.21875 0 -4.21875 L 4.125 -4.21875 C 4.351562 -4.21875 4.46875 -4.113281 4.46875 -3.90625 L 4.46875 0 C 4.46875 0.207031 4.351562 0.3125 4.125 0.3125 Z M 0 0.3125 "/></g></g></g><g fill="#000000" fill-opacity="1"><g transform="translate(429.408982, 166.473123)"><g><path d="M 0 0.3125 C -0.207031 0.3125 -0.3125 0.207031 -0.3125 0 L -0.3125 -3.90625 C -0.3125 -4.113281 -0.207031 -4.21875 0 -4.21875 L 4.125 -4.21875 C 4.351562 -4.21875 4.46875 -4.113281 4.46875 -3.90625 L 4.46875 0 C 4.46875 0.207031 4.351562 0.3125 4.125 0.3125 Z M 0 0.3125 "/></g></g></g><g fill="#000000" fill-opacity="1"><g transform="translate(433.221238, 166.473123)"><g><path d="M 0 0.3125 C -0.207031 0.3125 -0.3125 0.207031 -0.3125 0 L -0.3125 -3.90625 C -0.3125 -4.113281 -0.207031 -4.21875 0 -4.21875 L 4.125 -4.21875 C 4.351562 -4.21875 4.46875 -4.113281 4.46875 -3.90625 L 4.46875 0 C 4.46875 0.207031 4.351562 0.3125 4.125 0.3125 Z M 0 0.3125 "/></g></g></g><g fill="#000000" fill-opacity="1"><g transform="translate(437.033493, 166.473123)"><g><path d="M 0 0.3125 C -0.207031 0.3125 -0.3125 0.207031 -0.3125 0 L -0.3125 -3.90625 C -0.3125 -4.113281 -0.207031 -4.21875 0 -4.21875 L 4.125 -4.21875 C 4.351562 -4.21875 4.46875 -4.113281 4.46875 -3.90625 L 4.46875 0 C 4.46875 0.207031 4.351562 0.3125 4.125 0.3125 Z M 0 0.3125 "/></g></g></g><g fill="#000000" fill-opacity="1"><g transform="translate(440.845749, 166.473123)"><g><path d="M 0 0.3125 C -0.207031 0.3125 -0.3125 0.207031 -0.3125 0 L -0.3125 -3.90625 C -0.3125 -4.113281 -0.207031 -4.21875 0 -4.21875 L 4.125 -4.21875 C 4.351562 -4.21875 4.46875 -4.113281 4.46875 -3.90625 L 4.46875 0 C 4.46875 0.207031 4.351562 0.3125 4.125 0.3125 Z M 0 0.3125 "/></g></g></g><g fill="#000000" fill-opacity="1"><g transform="translate(444.658005, 166.473123)"><g><path d="M 0 0.3125 C -0.207031 0.3125 -0.3125 0.207031 -0.3125 0 L -0.3125 -3.90625 C -0.3125 -4.113281 -0.207031 -4.21875 0 -4.21875 L 4.125 -4.21875 C 4.351562 -4.21875 4.46875 -4.113281 4.46875 -3.90625 L 4.46875 0 C 4.46875 0.207031 4.351562 0.3125 4.125 0.3125 Z M 0 0.3125 "/></g></g></g><g fill="#000000" fill-opacity="1"><g transform="translate(448.47026, 166.473123)"><g><path d="M 0 0.3125 C -0.207031 0.3125 -0.3125 0.207031 -0.3125 0 L -0.3125 -3.90625 C -0.3125 -4.113281 -0.207031 -4.21875 0 -4.21875 L 4.125 -4.21875 C 4.351562 -4.21875 4.46875 -4.113281 4.46875 -3.90625 L 4.46875 0 C 4.46875 0.207031 4.351562 0.3125 4.125 0.3125 Z M 0 0.3125 "/></g></g></g><g fill="#000000" fill-opacity="1"><g transform="translate(452.282516, 166.473123)"><g><path d="M 0 0.3125 C -0.207031 0.3125 -0.3125 0.207031 -0.3125 0 L -0.3125 -3.90625 C -0.3125 -4.113281 -0.207031 -4.21875 0 -4.21875 L 4.125 -4.21875 C 4.351562 -4.21875 4.46875 -4.113281 4.46875 -3.90625 L 4.46875 0 C 4.46875 0.207031 4.351562 0.3125 4.125 0.3125 Z M 0 0.3125 "/></g></g></g><g fill="#000000" fill-opacity="1"><g transform="translate(456.094772, 166.473123)"><g><path d="M 0 0.3125 C -0.207031 0.3125 -0.3125 0.207031 -0.3125 0 L -0.3125 -3.90625 C -0.3125 -4.113281 -0.207031 -4.21875 0 -4.21875 L 4.125 -4.21875 C 4.351562 -4.21875 4.46875 -4.113281 4.46875 -3.90625 L 4.46875 0 C 4.46875 0.207031 4.351562 0.3125 4.125 0.3125 Z M 0 0.3125 "/></g></g></g><g fill="#000000" fill-opacity="1"><g transform="translate(459.907028, 166.473123)"><g><path d="M 0 0.3125 C -0.207031 0.3125 -0.3125 0.207031 -0.3125 0 L -0.3125 -3.90625 C -0.3125 -4.113281 -0.207031 -4.21875 0 -4.21875 L 4.125 -4.21875 C 4.351562 -4.21875 4.46875 -4.113281 4.46875 -3.90625 L 4.46875 0 C 4.46875 0.207031 4.351562 0.3125 4.125 0.3125 Z M 0 0.3125 "/></g></g></g><g fill="#000000" fill-opacity="1"><g transform="translate(463.719283, 166.473123)"><g><path d="M 0 0.3125 C -0.207031 0.3125 -0.3125 0.207031 -0.3125 0 L -0.3125 -3.90625 C -0.3125 -4.113281 -0.207031 -4.21875 0 -4.21875 L 4.125 -4.21875 C 4.351562 -4.21875 4.46875 -4.113281 4.46875 -3.90625 L 4.46875 0 C 4.46875 0.207031 4.351562 0.3125 4.125 0.3125 Z M 0 0.3125 "/></g></g></g><g fill="#000000" fill-opacity="1"><g transform="translate(467.531539, 166.473123)"><g><path d="M 0 0.3125 C -0.207031 0.3125 -0.3125 0.207031 -0.3125 0 L -0.3125 -3.90625 C -0.3125 -4.113281 -0.207031 -4.21875 0 -4.21875 L 4.125 -4.21875 C 4.351562 -4.21875 4.46875 -4.113281 4.46875 -3.90625 L 4.46875 0 C 4.46875 0.207031 4.351562 0.3125 4.125 0.3125 Z M 0 0.3125 "/></g></g></g><g fill="#000000" fill-opacity="1"><g transform="translate(471.343795, 166.473123)"><g><path d="M 0 0.3125 C -0.207031 0.3125 -0.3125 0.207031 -0.3125 0 L -0.3125 -3.90625 C -0.3125 -4.113281 -0.207031 -4.21875 0 -4.21875 L 4.125 -4.21875 C 4.351562 -4.21875 4.46875 -4.113281 4.46875 -3.90625 L 4.46875 0 C 4.46875 0.207031 4.351562 0.3125 4.125 0.3125 Z M 0 0.3125 "/></g></g></g><g fill="#000000" fill-opacity="1"><g transform="translate(475.15605, 166.473123)"><g><path d="M 0 0.3125 C -0.207031 0.3125 -0.3125 0.207031 -0.3125 0 L -0.3125 -3.90625 C -0.3125 -4.113281 -0.207031 -4.21875 0 -4.21875 L 4.125 -4.21875 C 4.351562 -4.21875 4.46875 -4.113281 4.46875 -3.90625 L 4.46875 0 C 4.46875 0.207031 4.351562 0.3125 4.125 0.3125 Z M 0 0.3125 "/></g></g></g><g fill="#000000" fill-opacity="1"><g transform="translate(478.968306, 166.473123)"><g><path d="M 0 0.3125 C -0.207031 0.3125 -0.3125 0.207031 -0.3125 0 L -0.3125 -3.90625 C -0.3125 -4.113281 -0.207031 -4.21875 0 -4.21875 C 1.851562 -4.21875 3.160156 -4.265625 3.921875 -4.359375 C 4.691406 -4.460938 5.316406 -4.617188 5.796875 -4.828125 C 6.285156 -5.035156 6.65625 -5.304688 6.90625 -5.640625 C 7.15625 -5.972656 7.554688 -6.710938 8.109375 -7.859375 C 8.492188 -8.648438 8.835938 -9.148438 9.140625 -9.359375 C 9.441406 -9.578125 9.8125 -9.6875 10.25 -9.6875 C 10.875 -9.6875 11.378906 -9.503906 11.765625 -9.140625 C 11.523438 -8.566406 11.265625 -7.941406 10.984375 -7.265625 C 10.710938 -6.585938 10.414062 -5.898438 10.09375 -5.203125 C 11.320312 -4.546875 12.664062 -4.21875 14.125 -4.21875 C 14.332031 -4.21875 14.4375 -4.113281 14.4375 -3.90625 L 14.4375 0 C 14.4375 0.207031 14.332031 0.3125 14.125 0.3125 C 13.15625 0.3125 12.21875 0.109375 11.3125 -0.296875 C 10.414062 -0.710938 9.507812 -1.378906 8.59375 -2.296875 C 8.332031 -1.859375 8.035156 -1.453125 7.703125 -1.078125 C 7.335938 -0.660156 6.414062 -0.320312 4.9375 -0.0625 C 3.46875 0.1875 1.820312 0.3125 0 0.3125 Z M 9.234375 -20.59375 C 8.003906 -19.21875 7.0625 -18.316406 6.40625 -17.890625 C 5.957031 -18.171875 5.4375 -18.5625 4.84375 -19.0625 C 4.25 -19.570312 3.738281 -20.082031 3.3125 -20.59375 C 4.363281 -21.519531 5.34375 -22.515625 6.25 -23.578125 C 6.988281 -22.609375 7.984375 -21.613281 9.234375 -20.59375 Z M 5.984375 -15.9375 C 5.253906 -14.863281 4.28125 -13.753906 3.0625 -12.609375 C 1.6875 -13.703125 0.597656 -14.695312 -0.203125 -15.59375 C 0.640625 -16.375 1.476562 -17.222656 2.3125 -18.140625 L 3 -18.890625 C 3.664062 -18.160156 4.660156 -17.175781 5.984375 -15.9375 Z M 13.015625 -16.65625 C 12.273438 -15.550781 11.304688 -14.441406 10.109375 -13.328125 C 8.710938 -14.421875 7.632812 -15.414062 6.875 -16.3125 C 7.570312 -16.957031 8.617188 -18.054688 10.015625 -19.609375 C 10.578125 -19.015625 11.578125 -18.03125 13.015625 -16.65625 Z M 13.015625 -16.65625 "/></g></g></g><g fill="#000000" fill-opacity="1"><g transform="translate(492.755964, 166.473123)"><g><path d="M 0 0.3125 C -0.207031 0.3125 -0.3125 0.207031 -0.3125 0 L -0.3125 -3.90625 C -0.3125 -4.113281 -0.207031 -4.21875 0 -4.21875 C 3.101562 -4.21875 5.5625 -4.3125 7.375 -4.5 C 9.195312 -4.695312 10.628906 -5.03125 11.671875 -5.5 C 11.203125 -6.445312 10.3125 -7.488281 9 -8.625 C 7.695312 -9.757812 6.125 -10.84375 4.28125 -11.875 C 3.945312 -11.78125 3.625 -11.734375 3.3125 -11.734375 C 2.625 -11.734375 2.015625 -11.976562 1.484375 -12.46875 C 0.953125 -12.957031 0.6875 -13.539062 0.6875 -14.21875 C 0.6875 -14.738281 0.816406 -15.648438 1.078125 -16.953125 C 1.347656 -18.253906 1.550781 -18.945312 1.6875 -19.03125 C 5.3125 -20.832031 7.65625 -21.972656 8.71875 -22.453125 C 9.789062 -22.941406 11 -23.472656 12.34375 -24.046875 C 13.6875 -24.617188 14.742188 -25.0625 15.515625 -25.375 C 16.015625 -24.894531 16.265625 -24.257812 16.265625 -23.46875 C 16.265625 -22.832031 16.085938 -22.222656 15.734375 -21.640625 C 15.378906 -21.066406 14.890625 -20.613281 14.265625 -20.28125 C 13.640625 -19.957031 12.675781 -19.507812 11.375 -18.9375 C 10.070312 -18.363281 8.78125 -17.847656 7.5 -17.390625 C 6.21875 -16.941406 4.679688 -16.472656 2.890625 -15.984375 C 4.796875 -15.484375 6.570312 -14.691406 8.21875 -13.609375 C 9.863281 -12.523438 11.175781 -11.285156 12.15625 -9.890625 C 13.132812 -8.492188 13.625 -7.179688 13.625 -5.953125 C 13.625 -4.648438 13.128906 -3.523438 12.140625 -2.578125 C 11.148438 -1.640625 9.617188 -0.921875 7.546875 -0.421875 C 5.472656 0.0664062 2.957031 0.3125 0 0.3125 Z M 0 0.3125 "/></g></g></g><g fill="#000000" fill-opacity="1"><g transform="translate(509.704618, 166.473123)"><g><path d="M 17.046875 -2.765625 C 17.046875 -0.847656 16.617188 0.953125 15.765625 2.640625 C 14.921875 4.335938 13.757812 5.675781 12.28125 6.65625 C 10.800781 7.644531 9.203125 8.140625 7.484375 8.140625 C 6.972656 8.140625 6.144531 7.804688 5 7.140625 C 3.863281 6.484375 2.847656 5.769531 1.953125 5 L 2.578125 3.421875 C 3.941406 3.765625 5.335938 3.9375 6.765625 3.9375 C 8.753906 3.9375 10.488281 3.441406 11.96875 2.453125 C 13.457031 1.460938 14.476562 0.125 15.03125 -1.5625 L 15 -1.71875 L 15 -1.859375 C 14.101562 -0.972656 13.25 -0.332031 12.4375 0.0625 C 11.625 0.457031 10.796875 0.65625 9.953125 0.65625 C 8.398438 0.65625 7.179688 0.195312 6.296875 -0.71875 C 5.410156 -1.632812 4.96875 -2.9375 4.96875 -4.625 C 4.96875 -6.0625 5.226562 -7.457031 5.75 -8.8125 C 6.28125 -10.164062 6.976562 -11.257812 7.84375 -12.09375 C 8.71875 -12.925781 9.628906 -13.34375 10.578125 -13.34375 C 11.671875 -13.34375 12.695312 -12.847656 13.65625 -11.859375 C 14.625 -10.878906 15.429688 -9.519531 16.078125 -7.78125 C 16.722656 -6.039062 17.046875 -4.367188 17.046875 -2.765625 Z M 10.703125 -3.546875 C 11.828125 -3.546875 13.039062 -3.769531 14.34375 -4.21875 C 13.800781 -5.664062 13.144531 -6.78125 12.375 -7.5625 C 11.601562 -8.351562 10.773438 -8.75 9.890625 -8.75 C 9.054688 -8.75 8.367188 -8.460938 7.828125 -7.890625 C 7.285156 -7.316406 7.015625 -6.648438 7.015625 -5.890625 C 7.015625 -5.128906 7.332031 -4.546875 7.96875 -4.140625 C 8.601562 -3.742188 9.515625 -3.546875 10.703125 -3.546875 Z M 10.703125 -3.546875 "/></g></g></g><g fill="#000000" fill-opacity="1"><g transform="translate(528.702359, 166.473123)"><g/></g></g><g fill="#000000" fill-opacity="1"><g transform="translate(537.152859, 166.473123)"><g><path d="M 15.453125 0.3125 C 14.453125 0.3125 13.507812 0.0664062 12.625 -0.421875 C 12.15625 2.179688 11.125 4.257812 9.53125 5.8125 C 7.945312 7.363281 6.070312 8.140625 3.90625 8.140625 C 3.425781 8.140625 2.679688 7.828125 1.671875 7.203125 C 0.671875 6.585938 -0.316406 5.851562 -1.296875 5 L -0.6875 3.421875 C 0.675781 3.765625 1.96875 3.9375 3.1875 3.9375 C 5.0625 3.9375 6.65625 3.460938 7.96875 2.515625 C 9.28125 1.566406 10.222656 0.207031 10.796875 -1.5625 C 10.578125 -2.019531 10.363281 -2.414062 10.15625 -2.75 C 9.957031 -3.09375 9.476562 -3.859375 8.71875 -5.046875 C 8 -6.148438 7.46875 -7.09375 7.125 -7.875 C 6.78125 -8.664062 6.609375 -9.367188 6.609375 -9.984375 C 6.609375 -10.734375 6.910156 -11.472656 7.515625 -12.203125 C 8.117188 -12.941406 8.882812 -13.539062 9.8125 -14 C 10.0625 -12.96875 10.539062 -11.425781 11.25 -9.375 C 11.90625 -7.46875 12.34375 -5.976562 12.5625 -4.90625 C 13.394531 -4.445312 14.359375 -4.21875 15.453125 -4.21875 C 15.660156 -4.21875 15.765625 -4.113281 15.765625 -3.90625 L 15.765625 0 C 15.765625 0.207031 15.660156 0.3125 15.453125 0.3125 Z M 15.453125 0.3125 "/></g></g></g><g fill="#000000" fill-opacity="1"><g transform="translate(552.274807, 166.473123)"><g><path d="M 12.453125 -6.28125 C 12.171875 -7.351562 11.929688 -8.132812 11.734375 -8.625 C 11.003906 -8.082031 10.1875 -7.644531 9.28125 -7.3125 C 8.382812 -6.988281 7.460938 -6.828125 6.515625 -6.828125 C 5.585938 -6.828125 4.796875 -7.015625 4.140625 -7.390625 C 3.484375 -7.765625 2.976562 -8.285156 2.625 -8.953125 C 2.28125 -9.628906 2.109375 -10.410156 2.109375 -11.296875 C 2.109375 -12.617188 2.359375 -13.910156 2.859375 -15.171875 C 3.359375 -16.441406 4.015625 -17.453125 4.828125 -18.203125 C 5.640625 -18.953125 6.484375 -19.328125 7.359375 -19.328125 C 8.578125 -19.328125 9.75 -18.71875 10.875 -17.5 C 12 -16.28125 12.867188 -14.691406 13.484375 -12.734375 C 14.097656 -10.773438 14.40625 -8.644531 14.40625 -6.34375 C 14.40625 -5.519531 13.960938 -4.222656 13.078125 -2.453125 C 11.546875 -1.492188 9.773438 -0.789062 7.765625 -0.34375 C 5.765625 0.09375 3.1875 0.3125 0.03125 0.3125 C -0.195312 0.3125 -0.3125 0.195312 -0.3125 -0.03125 L -0.3125 -3.875 C -0.3125 -4.101562 -0.195312 -4.21875 0.03125 -4.21875 C 2.90625 -4.21875 5.3125 -4.390625 7.25 -4.734375 C 9.195312 -5.078125 10.929688 -5.59375 12.453125 -6.28125 Z M 7.265625 -10.0625 C 8.273438 -10.0625 9.484375 -10.296875 10.890625 -10.765625 C 10.222656 -12.160156 9.515625 -13.171875 8.765625 -13.796875 C 8.015625 -14.421875 7.285156 -14.734375 6.578125 -14.734375 C 5.953125 -14.734375 5.378906 -14.488281 4.859375 -14 C 4.347656 -13.519531 4.09375 -12.941406 4.09375 -12.265625 C 4.09375 -11.660156 4.398438 -11.140625 5.015625 -10.703125 C 5.628906 -10.273438 6.378906 -10.0625 7.265625 -10.0625 Z M 8.453125 -24.859375 C 7.679688 -23.710938 6.628906 -22.515625 5.296875 -21.265625 C 3.710938 -22.578125 2.550781 -23.648438 1.8125 -24.484375 C 3.351562 -26.023438 4.492188 -27.21875 5.234375 -28.0625 C 6.109375 -27.070312 7.179688 -26.003906 8.453125 -24.859375 Z M 8.453125 -24.859375 "/></g></g></g><g fill="#000000" fill-opacity="1"><g transform="translate(568.635737, 166.473123)"><g><path d="M 17.046875 -2.765625 C 17.046875 -0.847656 16.617188 0.953125 15.765625 2.640625 C 14.921875 4.335938 13.757812 5.675781 12.28125 6.65625 C 10.800781 7.644531 9.203125 8.140625 7.484375 8.140625 C 6.972656 8.140625 6.144531 7.804688 5 7.140625 C 3.863281 6.484375 2.847656 5.769531 1.953125 5 L 2.578125 3.421875 C 3.941406 3.765625 5.335938 3.9375 6.765625 3.9375 C 8.753906 3.9375 10.488281 3.441406 11.96875 2.453125 C 13.457031 1.460938 14.476562 0.125 15.03125 -1.5625 L 15 -1.71875 L 15 -1.859375 C 14.101562 -0.972656 13.25 -0.332031 12.4375 0.0625 C 11.625 0.457031 10.796875 0.65625 9.953125 0.65625 C 8.398438 0.65625 7.179688 0.195312 6.296875 -0.71875 C 5.410156 -1.632812 4.96875 -2.9375 4.96875 -4.625 C 4.96875 -6.0625 5.226562 -7.457031 5.75 -8.8125 C 6.28125 -10.164062 6.976562 -11.257812 7.84375 -12.09375 C 8.71875 -12.925781 9.628906 -13.34375 10.578125 -13.34375 C 11.671875 -13.34375 12.695312 -12.847656 13.65625 -11.859375 C 14.625 -10.878906 15.429688 -9.519531 16.078125 -7.78125 C 16.722656 -6.039062 17.046875 -4.367188 17.046875 -2.765625 Z M 10.703125 -3.546875 C 11.828125 -3.546875 13.039062 -3.769531 14.34375 -4.21875 C 13.800781 -5.664062 13.144531 -6.78125 12.375 -7.5625 C 11.601562 -8.351562 10.773438 -8.75 9.890625 -8.75 C 9.054688 -8.75 8.367188 -8.460938 7.828125 -7.890625 C 7.285156 -7.316406 7.015625 -6.648438 7.015625 -5.890625 C 7.015625 -5.128906 7.332031 -4.546875 7.96875 -4.140625 C 8.601562 -3.742188 9.515625 -3.546875 10.703125 -3.546875 Z M 10.703125 -3.546875 "/></g></g></g><g fill="#000000" fill-opacity="1"><g transform="translate(587.643228, 166.473123)"><g/></g></g><g fill="#000000" fill-opacity="1"><g transform="translate(596.093728, 166.473123)"><g/></g></g></svg>